<mxfile host="Electron" modified="2024-04-17T14:50:12.082Z" agent="Mozilla/5.0 (Windows NT 10.0; Win64; x64) AppleWebKit/537.36 (KHTML, like Gecko) draw.io/24.1.0 Chrome/120.0.6099.109 Electron/28.1.0 Safari/537.36" etag="la5PwnEScjt5hGUKyN4k" version="24.1.0" type="device">
  <diagram name="Pagina-1" id="EbbT6levXlGankRBU3xu">
    <mxGraphModel dx="1877" dy="1790" grid="1" gridSize="10" guides="1" tooltips="1" connect="1" arrows="1" fold="1" page="1" pageScale="1" pageWidth="827" pageHeight="1169" math="0" shadow="0">
      <root>
        <mxCell id="0" />
        <mxCell id="1" parent="0" />
        <mxCell id="6MROhRFDQ1KxajKRY2Cs-21" style="edgeStyle=orthogonalEdgeStyle;rounded=0;orthogonalLoop=1;jettySize=auto;html=1;entryX=0;entryY=0.5;entryDx=0;entryDy=0;" edge="1" parent="1" source="6MROhRFDQ1KxajKRY2Cs-4" target="6MROhRFDQ1KxajKRY2Cs-14">
          <mxGeometry relative="1" as="geometry" />
        </mxCell>
        <mxCell id="6MROhRFDQ1KxajKRY2Cs-22" style="edgeStyle=orthogonalEdgeStyle;rounded=0;orthogonalLoop=1;jettySize=auto;html=1;entryX=0;entryY=0.5;entryDx=0;entryDy=0;" edge="1" parent="1" source="6MROhRFDQ1KxajKRY2Cs-4" target="6MROhRFDQ1KxajKRY2Cs-15">
          <mxGeometry relative="1" as="geometry" />
        </mxCell>
        <mxCell id="6MROhRFDQ1KxajKRY2Cs-23" style="edgeStyle=orthogonalEdgeStyle;rounded=0;orthogonalLoop=1;jettySize=auto;html=1;entryX=0;entryY=0.5;entryDx=0;entryDy=0;" edge="1" parent="1" source="6MROhRFDQ1KxajKRY2Cs-4" target="6MROhRFDQ1KxajKRY2Cs-16">
          <mxGeometry relative="1" as="geometry" />
        </mxCell>
        <mxCell id="6MROhRFDQ1KxajKRY2Cs-24" style="edgeStyle=orthogonalEdgeStyle;rounded=0;orthogonalLoop=1;jettySize=auto;html=1;entryX=0;entryY=0.5;entryDx=0;entryDy=0;" edge="1" parent="1" source="6MROhRFDQ1KxajKRY2Cs-4" target="6MROhRFDQ1KxajKRY2Cs-17">
          <mxGeometry relative="1" as="geometry" />
        </mxCell>
        <mxCell id="6MROhRFDQ1KxajKRY2Cs-38" style="edgeStyle=orthogonalEdgeStyle;rounded=0;orthogonalLoop=1;jettySize=auto;html=1;entryX=0;entryY=0.5;entryDx=0;entryDy=0;" edge="1" parent="1" source="6MROhRFDQ1KxajKRY2Cs-4" target="6MROhRFDQ1KxajKRY2Cs-29">
          <mxGeometry relative="1" as="geometry" />
        </mxCell>
        <mxCell id="6MROhRFDQ1KxajKRY2Cs-39" style="edgeStyle=orthogonalEdgeStyle;rounded=0;orthogonalLoop=1;jettySize=auto;html=1;entryX=0;entryY=0.5;entryDx=0;entryDy=0;" edge="1" parent="1" source="6MROhRFDQ1KxajKRY2Cs-4" target="6MROhRFDQ1KxajKRY2Cs-32">
          <mxGeometry relative="1" as="geometry" />
        </mxCell>
        <mxCell id="6MROhRFDQ1KxajKRY2Cs-40" style="edgeStyle=orthogonalEdgeStyle;rounded=0;orthogonalLoop=1;jettySize=auto;html=1;entryX=0;entryY=0.5;entryDx=0;entryDy=0;" edge="1" parent="1" source="6MROhRFDQ1KxajKRY2Cs-4" target="6MROhRFDQ1KxajKRY2Cs-33">
          <mxGeometry relative="1" as="geometry" />
        </mxCell>
        <mxCell id="6MROhRFDQ1KxajKRY2Cs-41" style="edgeStyle=orthogonalEdgeStyle;rounded=0;orthogonalLoop=1;jettySize=auto;html=1;entryX=0;entryY=0.5;entryDx=0;entryDy=0;" edge="1" parent="1" source="6MROhRFDQ1KxajKRY2Cs-4" target="6MROhRFDQ1KxajKRY2Cs-34">
          <mxGeometry relative="1" as="geometry" />
        </mxCell>
        <mxCell id="6MROhRFDQ1KxajKRY2Cs-4" value="impiegati" style="rounded=0;whiteSpace=wrap;html=1;" vertex="1" parent="1">
          <mxGeometry x="294" y="220" width="120" height="60" as="geometry" />
        </mxCell>
        <mxCell id="6MROhRFDQ1KxajKRY2Cs-18" style="edgeStyle=orthogonalEdgeStyle;rounded=0;orthogonalLoop=1;jettySize=auto;html=1;entryX=0;entryY=0.5;entryDx=0;entryDy=0;" edge="1" parent="1" source="6MROhRFDQ1KxajKRY2Cs-5" target="6MROhRFDQ1KxajKRY2Cs-11">
          <mxGeometry relative="1" as="geometry" />
        </mxCell>
        <mxCell id="6MROhRFDQ1KxajKRY2Cs-5" value="reparto" style="rounded=0;whiteSpace=wrap;html=1;" vertex="1" parent="1">
          <mxGeometry x="-150" y="220" width="120" height="60" as="geometry" />
        </mxCell>
        <mxCell id="6MROhRFDQ1KxajKRY2Cs-49" style="edgeStyle=orthogonalEdgeStyle;rounded=0;orthogonalLoop=1;jettySize=auto;html=1;entryX=0;entryY=0.5;entryDx=0;entryDy=0;" edge="1" parent="1" source="6MROhRFDQ1KxajKRY2Cs-6" target="6MROhRFDQ1KxajKRY2Cs-47">
          <mxGeometry relative="1" as="geometry" />
        </mxCell>
        <mxCell id="6MROhRFDQ1KxajKRY2Cs-52" style="edgeStyle=orthogonalEdgeStyle;rounded=0;orthogonalLoop=1;jettySize=auto;html=1;entryX=0.5;entryY=0;entryDx=0;entryDy=0;endArrow=doubleBlock;endFill=1;" edge="1" parent="1" source="6MROhRFDQ1KxajKRY2Cs-6" target="6MROhRFDQ1KxajKRY2Cs-51">
          <mxGeometry relative="1" as="geometry" />
        </mxCell>
        <mxCell id="6MROhRFDQ1KxajKRY2Cs-6" value="citta" style="rounded=0;whiteSpace=wrap;html=1;" vertex="1" parent="1">
          <mxGeometry x="300" y="-60" width="120" height="60" as="geometry" />
        </mxCell>
        <mxCell id="6MROhRFDQ1KxajKRY2Cs-46" style="edgeStyle=orthogonalEdgeStyle;rounded=0;orthogonalLoop=1;jettySize=auto;html=1;entryX=0;entryY=0.5;entryDx=0;entryDy=0;" edge="1" parent="1" source="6MROhRFDQ1KxajKRY2Cs-7" target="6MROhRFDQ1KxajKRY2Cs-45">
          <mxGeometry relative="1" as="geometry" />
        </mxCell>
        <mxCell id="6MROhRFDQ1KxajKRY2Cs-53" style="edgeStyle=orthogonalEdgeStyle;rounded=0;orthogonalLoop=1;jettySize=auto;html=1;entryX=0.5;entryY=1;entryDx=0;entryDy=0;" edge="1" parent="1" source="6MROhRFDQ1KxajKRY2Cs-7" target="6MROhRFDQ1KxajKRY2Cs-51">
          <mxGeometry relative="1" as="geometry" />
        </mxCell>
        <mxCell id="6MROhRFDQ1KxajKRY2Cs-7" value="province" style="rounded=0;whiteSpace=wrap;html=1;" vertex="1" parent="1">
          <mxGeometry x="530" y="220" width="120" height="60" as="geometry" />
        </mxCell>
        <mxCell id="6MROhRFDQ1KxajKRY2Cs-11" value="" style="ellipse;whiteSpace=wrap;html=1;aspect=fixed;fillColor=#190033;" vertex="1" parent="1">
          <mxGeometry x="-70" y="310" width="20" height="20" as="geometry" />
        </mxCell>
        <mxCell id="6MROhRFDQ1KxajKRY2Cs-14" value="" style="ellipse;whiteSpace=wrap;html=1;aspect=fixed;fillColor=#190033;" vertex="1" parent="1">
          <mxGeometry x="380" y="310" width="20" height="20" as="geometry" />
        </mxCell>
        <mxCell id="6MROhRFDQ1KxajKRY2Cs-15" value="" style="ellipse;whiteSpace=wrap;html=1;aspect=fixed;" vertex="1" parent="1">
          <mxGeometry x="380" y="340" width="20" height="20" as="geometry" />
        </mxCell>
        <mxCell id="6MROhRFDQ1KxajKRY2Cs-16" value="" style="ellipse;whiteSpace=wrap;html=1;aspect=fixed;" vertex="1" parent="1">
          <mxGeometry x="380" y="370" width="20" height="20" as="geometry" />
        </mxCell>
        <mxCell id="6MROhRFDQ1KxajKRY2Cs-17" value="" style="ellipse;whiteSpace=wrap;html=1;aspect=fixed;" vertex="1" parent="1">
          <mxGeometry x="380" y="400" width="20" height="20" as="geometry" />
        </mxCell>
        <mxCell id="6MROhRFDQ1KxajKRY2Cs-25" value="matricola" style="text;html=1;align=center;verticalAlign=middle;resizable=0;points=[];autosize=1;strokeColor=none;fillColor=none;" vertex="1" parent="1">
          <mxGeometry x="405" y="308" width="70" height="30" as="geometry" />
        </mxCell>
        <mxCell id="6MROhRFDQ1KxajKRY2Cs-26" value="nome" style="text;html=1;align=center;verticalAlign=middle;resizable=0;points=[];autosize=1;strokeColor=none;fillColor=none;" vertex="1" parent="1">
          <mxGeometry x="395" y="338" width="50" height="30" as="geometry" />
        </mxCell>
        <mxCell id="6MROhRFDQ1KxajKRY2Cs-27" value="cognome" style="text;html=1;align=center;verticalAlign=middle;resizable=0;points=[];autosize=1;strokeColor=none;fillColor=none;" vertex="1" parent="1">
          <mxGeometry x="395" y="368" width="70" height="30" as="geometry" />
        </mxCell>
        <mxCell id="6MROhRFDQ1KxajKRY2Cs-28" value="data_nascita" style="text;html=1;align=center;verticalAlign=middle;resizable=0;points=[];autosize=1;strokeColor=none;fillColor=none;" vertex="1" parent="1">
          <mxGeometry x="395" y="398" width="90" height="30" as="geometry" />
        </mxCell>
        <mxCell id="6MROhRFDQ1KxajKRY2Cs-29" value="" style="ellipse;whiteSpace=wrap;html=1;aspect=fixed;" vertex="1" parent="1">
          <mxGeometry x="380" y="430" width="20" height="20" as="geometry" />
        </mxCell>
        <mxCell id="6MROhRFDQ1KxajKRY2Cs-30" value="ruolo" style="text;html=1;align=center;verticalAlign=middle;resizable=0;points=[];autosize=1;strokeColor=none;fillColor=none;" vertex="1" parent="1">
          <mxGeometry x="405" y="428" width="50" height="30" as="geometry" />
        </mxCell>
        <mxCell id="6MROhRFDQ1KxajKRY2Cs-32" value="" style="ellipse;whiteSpace=wrap;html=1;aspect=fixed;" vertex="1" parent="1">
          <mxGeometry x="380" y="458" width="20" height="20" as="geometry" />
        </mxCell>
        <mxCell id="6MROhRFDQ1KxajKRY2Cs-33" value="" style="ellipse;whiteSpace=wrap;html=1;aspect=fixed;" vertex="1" parent="1">
          <mxGeometry x="380" y="490" width="20" height="20" as="geometry" />
        </mxCell>
        <mxCell id="6MROhRFDQ1KxajKRY2Cs-34" value="" style="ellipse;whiteSpace=wrap;html=1;aspect=fixed;" vertex="1" parent="1">
          <mxGeometry x="380" y="520" width="20" height="20" as="geometry" />
        </mxCell>
        <mxCell id="6MROhRFDQ1KxajKRY2Cs-35" value="reparto" style="text;html=1;align=center;verticalAlign=middle;resizable=0;points=[];autosize=1;strokeColor=none;fillColor=none;" vertex="1" parent="1">
          <mxGeometry x="405" y="450" width="60" height="30" as="geometry" />
        </mxCell>
        <mxCell id="6MROhRFDQ1KxajKRY2Cs-36" value="indirizzo" style="text;html=1;align=center;verticalAlign=middle;resizable=0;points=[];autosize=1;strokeColor=none;fillColor=none;" vertex="1" parent="1">
          <mxGeometry x="395" y="488" width="70" height="30" as="geometry" />
        </mxCell>
        <mxCell id="6MROhRFDQ1KxajKRY2Cs-37" value="citta" style="text;html=1;align=center;verticalAlign=middle;resizable=0;points=[];autosize=1;strokeColor=none;fillColor=none;" vertex="1" parent="1">
          <mxGeometry x="405" y="520" width="50" height="30" as="geometry" />
        </mxCell>
        <mxCell id="6MROhRFDQ1KxajKRY2Cs-42" value="nome" style="text;html=1;align=center;verticalAlign=middle;resizable=0;points=[];autosize=1;strokeColor=none;fillColor=none;" vertex="1" parent="1">
          <mxGeometry x="-45" y="308" width="50" height="30" as="geometry" />
        </mxCell>
        <mxCell id="6MROhRFDQ1KxajKRY2Cs-43" value="nome_provincia" style="text;html=1;align=center;verticalAlign=middle;resizable=0;points=[];autosize=1;strokeColor=none;fillColor=none;" vertex="1" parent="1">
          <mxGeometry x="650" y="308" width="110" height="30" as="geometry" />
        </mxCell>
        <mxCell id="6MROhRFDQ1KxajKRY2Cs-45" value="" style="ellipse;whiteSpace=wrap;html=1;aspect=fixed;fillColor=#000000;" vertex="1" parent="1">
          <mxGeometry x="630" y="313" width="20" height="20" as="geometry" />
        </mxCell>
        <mxCell id="6MROhRFDQ1KxajKRY2Cs-47" value="" style="ellipse;whiteSpace=wrap;html=1;aspect=fixed;fillColor=#000000;" vertex="1" parent="1">
          <mxGeometry x="375" y="20" width="20" height="20" as="geometry" />
        </mxCell>
        <mxCell id="6MROhRFDQ1KxajKRY2Cs-48" value="nome_provicncia" style="text;html=1;align=center;verticalAlign=middle;resizable=0;points=[];autosize=1;strokeColor=none;fillColor=none;" vertex="1" parent="1">
          <mxGeometry x="414" y="15" width="110" height="30" as="geometry" />
        </mxCell>
        <mxCell id="6MROhRFDQ1KxajKRY2Cs-51" value="appartiene" style="rhombus;whiteSpace=wrap;html=1;" vertex="1" parent="1">
          <mxGeometry x="540" y="50" width="80" height="80" as="geometry" />
        </mxCell>
        <mxCell id="6MROhRFDQ1KxajKRY2Cs-55" value="Relazioni da implementare in seguito!!" style="text;html=1;align=center;verticalAlign=middle;whiteSpace=wrap;rounded=0;" vertex="1" parent="1">
          <mxGeometry x="90" y="235" width="60" height="30" as="geometry" />
        </mxCell>
      </root>
    </mxGraphModel>
  </diagram>
</mxfile>
